<svg width="9" height="6" viewBox="0 0 9 6" fill="none" xmlns="http://www.w3.org/2000/svg">
<path fill-rule="evenodd" clip-rule="evenodd" d="M4.9092 5.77763C4.78989 5.90261 4.6281 5.97282 4.4594 5.97282C4.2907 5.97282 4.12891 5.90261 4.0096 5.77763L0.410595 2.0063C0.349831 1.9448 0.301364 1.87124 0.268021 1.7899C0.234678 1.70857 0.217128 1.62109 0.216394 1.53257C0.21566 1.44405 0.231757 1.35626 0.263746 1.27433C0.295735 1.1924 0.342975 1.11796 0.40271 1.05537C0.462445 0.992774 0.533478 0.943272 0.611665 0.909752C0.689852 0.876231 0.773628 0.859363 0.858102 0.860133C0.942577 0.860902 1.02606 0.879293 1.10368 0.914232C1.1813 0.949171 1.2515 0.999959 1.31019 1.06363L4.4594 4.36363L7.60861 1.06363C7.7286 0.942194 7.88931 0.874998 8.05612 0.876517C8.22293 0.878036 8.3825 0.948148 8.50046 1.07175C8.61841 1.19536 8.68532 1.36257 8.68677 1.53737C8.68822 1.71216 8.6241 1.88056 8.50821 2.0063L4.9092 5.77763Z" fill="#7E7E7E"/>
</svg>
