<svg width="7" height="11" viewBox="0 0 7 11" fill="none" xmlns="http://www.w3.org/2000/svg">
<path d="M6.00332 4.91185C6.07019 4.97881 6.10363 5.05582 6.10363 5.14287C6.10363 5.22993 6.07019 5.30694 6.00332 5.3739L1.3288 10.0547C1.26193 10.1217 1.18502 10.1552 1.09809 10.1552C1.01115 10.1552 0.934246 10.1217 0.867371 10.0547L0.365814 9.55247C0.29894 9.48551 0.265503 9.4085 0.265503 9.32145C0.265503 9.23439 0.29894 9.15738 0.365814 9.09042L4.30805 5.14287L0.365814 1.19533C0.29894 1.12837 0.265503 1.05136 0.265503 0.964303C0.265503 0.87725 0.29894 0.800241 0.365814 0.733276L0.867371 0.231045C0.934246 0.16408 1.01115 0.130598 1.09809 0.130598C1.18502 0.130598 1.26193 0.16408 1.3288 0.231045L6.00332 4.91185Z" fill="black"/>
</svg>
