<svg width="9" height="19" viewBox="0 0 9 19" fill="none" xmlns="http://www.w3.org/2000/svg">
<g opacity="0.75">
<path d="M7.00332 9.91185C7.07019 9.97881 7.10363 10.0558 7.10363 10.1429C7.10363 10.2299 7.07019 10.3069 7.00332 10.3739L2.3288 15.0547C2.26193 15.1217 2.18502 15.1552 2.09809 15.1552C2.01115 15.1552 1.93425 15.1217 1.86737 15.0547L1.36581 14.5525C1.29894 14.4855 1.2655 14.4085 1.2655 14.3214C1.2655 14.2344 1.29894 14.1574 1.36581 14.0904L5.30805 10.1429L1.36581 6.19533C1.29894 6.12837 1.2655 6.05136 1.2655 5.9643C1.2655 5.87725 1.29894 5.80024 1.36581 5.73328L1.86737 5.23104C1.93425 5.16408 2.01115 5.1306 2.09809 5.1306C2.18502 5.1306 2.26193 5.16408 2.3288 5.23104L7.00332 9.91185Z" fill="black"/>
</g>
</svg>
