<svg width="7" height="11" viewBox="0 0 7 11" fill="none" xmlns="http://www.w3.org/2000/svg">
<path d="M6.32424 0.733276C6.39111 0.800241 6.42455 0.87725 6.42455 0.964303C6.42455 1.05136 6.39111 1.12837 6.32424 1.19533L2.382 5.14287L6.32424 9.09042C6.39111 9.15738 6.42455 9.23439 6.42455 9.32145C6.42455 9.4085 6.39111 9.48551 6.32424 9.55247L5.82268 10.0547C5.75581 10.1217 5.6789 10.1552 5.59197 10.1552C5.50503 10.1552 5.42812 10.1217 5.36125 10.0547L0.686737 5.3739C0.619863 5.30694 0.586426 5.22993 0.586426 5.14287C0.586426 5.05582 0.619863 4.97881 0.686737 4.91185L5.36125 0.231045C5.42812 0.16408 5.50503 0.130598 5.59197 0.130598C5.6789 0.130598 5.75581 0.16408 5.82268 0.231045L6.32424 0.733276Z" fill="black"/>
</svg>
