<svg width="26" height="26" viewBox="0 0 26 26" fill="white" xmlns="http://www.w3.org/2000/svg">
    <path d="M13.2715 5.44527C13.1988 5.37573 13.1021 5.33691 13.0015 5.33691C12.9009 5.33691 12.8041 5.37573 12.7314 5.44527L3.74219 14.0327C3.70401 14.0692 3.67364 14.1131 3.65291 14.1617C3.63218 14.2103 3.62152 14.2626 3.62158 14.3154L3.62012 22.375C3.62012 22.7894 3.78474 23.1868 4.07776 23.4798C4.37079 23.7728 4.76822 23.9375 5.18262 23.9375H9.875C10.0822 23.9375 10.2809 23.8551 10.4274 23.7086C10.5739 23.5621 10.6563 23.3634 10.6563 23.1562V16.5156C10.6563 16.412 10.6974 16.3126 10.7707 16.2394C10.8439 16.1661 10.9433 16.125 11.0469 16.125H14.9531C15.0567 16.125 15.1561 16.1661 15.2293 16.2394C15.3026 16.3126 15.3438 16.412 15.3438 16.5156V23.1562C15.3438 23.3634 15.4261 23.5621 15.5726 23.7086C15.7191 23.8551 15.9178 23.9375 16.125 23.9375H20.8154C21.2298 23.9375 21.6273 23.7728 21.9203 23.4798C22.2133 23.1868 22.3779 22.7894 22.3779 22.375V14.3154C22.378 14.2626 22.3673 14.2103 22.3466 14.1617C22.3259 14.1131 22.2955 14.0692 22.2573 14.0327L13.2715 5.44527Z" fill="white"/>
    <path d="M24.4702 12.4214L20.8179 8.92725V3.625C20.8179 3.4178 20.7356 3.21909 20.5891 3.07257C20.4426 2.92606 20.2438 2.84375 20.0366 2.84375H17.6929C17.4857 2.84375 17.287 2.92606 17.1405 3.07257C16.9939 3.21909 16.9116 3.4178 16.9116 3.625V5.1875L14.0835 2.4834C13.8189 2.21582 13.4253 2.0625 13 2.0625C12.5762 2.0625 12.1836 2.21582 11.919 2.48389L1.53322 12.4204C1.22951 12.7134 1.19142 13.1953 1.46779 13.5127C1.53719 13.5928 1.62217 13.658 1.71755 13.7042C1.81293 13.7504 1.91672 13.7768 2.0226 13.7816C2.12848 13.7864 2.23424 13.7697 2.33344 13.7324C2.43264 13.695 2.52321 13.6379 2.59963 13.5645L12.7315 3.88281C12.8042 3.81327 12.9009 3.77446 13.0015 3.77446C13.1021 3.77446 13.1988 3.81327 13.2715 3.88281L23.4043 13.5645C23.5536 13.7076 23.7535 13.7857 23.9603 13.7817C24.167 13.7777 24.3638 13.6918 24.5073 13.543C24.8071 13.2324 24.7822 12.7197 24.4702 12.4214Z" fill="white"/>
</svg>
