<svg width="9" height="19" viewBox="0 0 9 19" fill="white" xmlns="http://www.w3.org/2000/svg">
<path d="M7.32424 5.73328C7.39111 5.80024 7.42455 5.87725 7.42455 5.9643C7.42455 6.05136 7.39111 6.12837 7.32424 6.19533L3.382 10.1429L7.32424 14.0904C7.39111 14.1574 7.42455 14.2344 7.42455 14.3214C7.42455 14.4085 7.39111 14.4855 7.32424 14.5525L6.82268 15.0547C6.75581 15.1217 6.6789 15.1552 6.59197 15.1552C6.50503 15.1552 6.42812 15.1217 6.36125 15.0547L1.68674 10.3739C1.61986 10.3069 1.58643 10.2299 1.58643 10.1429C1.58643 10.0558 1.61986 9.97881 1.68674 9.91185L6.36125 5.23104C6.42812 5.16408 6.50503 5.1306 6.59197 5.1306C6.6789 5.1306 6.75581 5.16408 6.82268 5.23104L7.32424 5.73328Z" fill="black"/>
</svg>
