<svg width="15" height="17" viewBox="0 0 15 17" fill="none" xmlns="http://www.w3.org/2000/svg">
<g clip-path="url(#clip0_132_2482)">
<path d="M3.91893 6.49041V15.3386H0.972499V6.49041H3.91893ZM4.10643 3.75827C4.11238 4.19279 3.96208 4.55588 3.65554 4.84755C3.34899 5.13922 2.94571 5.28505 2.44571 5.28505H2.42786C1.93976 5.28505 1.5469 5.13922 1.24929 4.84755C0.951666 4.55588 0.802856 4.19279 0.802856 3.75827C0.802856 3.31779 0.95613 2.95321 1.26268 2.66452C1.56923 2.37582 1.96952 2.23148 2.46357 2.23148C2.95762 2.23148 3.35345 2.37582 3.65107 2.66452C3.94869 2.95321 4.10048 3.31779 4.10643 3.75827ZM14.5171 10.2672V15.3386H11.5796V10.6065C11.5796 9.98148 11.4591 9.4919 11.218 9.13773C10.977 8.78356 10.6005 8.60648 10.0886 8.60648C9.71357 8.60648 9.39958 8.70916 9.14661 8.91452C8.89363 9.11987 8.70464 9.37434 8.57964 9.67791C8.51417 9.85648 8.48143 10.0976 8.48143 10.4011V15.3386H5.54393C5.55583 12.9636 5.56179 11.038 5.56179 9.56184C5.56179 8.08565 5.55881 7.20469 5.55286 6.91898L5.54393 6.49041H8.48143V7.77612H8.46357C8.58262 7.58565 8.70464 7.41898 8.82964 7.27612C8.95464 7.13327 9.1228 6.9785 9.33411 6.81184C9.54542 6.64517 9.80435 6.51571 10.1109 6.42344C10.4174 6.33118 10.7582 6.28505 11.1332 6.28505C12.1511 6.28505 12.9695 6.62285 13.5886 7.29844C14.2076 7.97404 14.5171 8.96362 14.5171 10.2672Z" fill="#6C6C6C"/>
</g>
<defs>
<clipPath id="clip0_132_2482">
<rect width="14.22" height="16" fill="white" transform="matrix(1 0 0 -1 0.550049 16.91)"/>
</clipPath>
</defs>
</svg>
