<svg width="31" height="31" viewBox="0 0 31 31" fill="none" xmlns="http://www.w3.org/2000/svg">
<path d="M11.0275 16.5601C11.0275 16.3114 10.9288 16.073 10.7529 15.8971C10.5771 15.7213 10.3387 15.6226 10.09 15.6226C9.84139 15.6226 9.60293 15.7213 9.42711 15.8971C9.2513 16.073 9.15253 16.3114 9.15253 16.5601V21.5601C9.15253 21.8087 9.2513 22.0472 9.42711 22.223C9.60293 22.3988 9.84139 22.4976 10.09 22.4976C10.3387 22.4976 10.5771 22.3988 10.7529 22.223C10.9288 22.0472 11.0275 21.8087 11.0275 21.5601V16.5601ZM20.09 15.6226C20.3387 15.6226 20.5771 15.7213 20.7529 15.8971C20.9288 16.073 21.0275 16.3114 21.0275 16.5601V21.5601C21.0275 21.8087 20.9288 22.0472 20.7529 22.223C20.5771 22.3988 20.3387 22.4976 20.09 22.4976C19.8414 22.4976 19.6029 22.3988 19.4271 22.223C19.2513 22.0472 19.1525 21.8087 19.1525 21.5601V16.5601C19.1525 16.3114 19.2513 16.073 19.4271 15.8971C19.6029 15.7213 19.8414 15.6226 20.09 15.6226ZM16.0275 16.5601C16.0275 16.3114 15.9288 16.073 15.7529 15.8971C15.5771 15.7213 15.3387 15.6226 15.09 15.6226C14.8414 15.6226 14.6029 15.7213 14.4271 15.8971C14.2513 16.073 14.1525 16.3114 14.1525 16.5601V21.5601C14.1525 21.8087 14.2513 22.0472 14.4271 22.223C14.6029 22.3988 14.8414 22.4976 15.09 22.4976C15.3387 22.4976 15.5771 22.3988 15.7529 22.223C15.9288 22.0472 16.0275 21.8087 16.0275 21.5601V16.5601Z" fill="#2C5291"/>
<path fill-rule="evenodd" clip-rule="evenodd" d="M21.6825 4.65131C21.0875 4.41881 20.4212 4.38006 19.5675 4.37381C19.3902 3.9994 19.1102 3.68303 18.7601 3.46152C18.4101 3.24001 18.0043 3.12247 17.59 3.12256H12.59C12.1759 3.12236 11.7702 3.23972 11.4201 3.461C11.07 3.68228 10.79 3.99838 10.6125 4.37256C9.7575 4.38006 9.0925 4.41881 8.4975 4.65131C7.78721 4.92915 7.16949 5.40132 6.715 6.01381C6.25625 6.63006 6.04 7.42256 5.745 8.51131L4.96 11.3901C4.46826 11.6382 4.03722 11.9915 3.6975 12.4251C2.92 13.4213 2.7825 14.6076 2.92125 15.9676C3.055 17.2876 3.47125 18.9501 3.99125 21.0301L4.02375 21.1638C4.35375 22.4788 4.62 23.5476 4.9375 24.3813C5.26875 25.2513 5.69 25.9638 6.3825 26.5051C7.07625 27.0463 7.87 27.2801 8.79375 27.3926C9.67875 27.4976 10.7812 27.4976 12.1375 27.4976H18.0425C19.3987 27.4976 20.5 27.4976 21.3862 27.3913C22.3112 27.2813 23.1037 27.0463 23.7962 26.5038C24.49 25.9638 24.91 25.2513 25.2412 24.3813C25.56 23.5476 25.8262 22.4788 26.155 21.1626L26.1887 21.0313C26.7087 18.9501 27.1237 17.2876 27.2587 15.9688C27.3962 14.6063 27.2587 13.4213 26.4813 12.4251C26.1419 11.9917 25.7113 11.6383 25.22 11.3901L24.435 8.51131C24.1387 7.42256 23.9225 6.63006 23.465 6.01256C23.0103 5.40053 22.3926 4.92881 21.6825 4.65131ZM9.18 6.39756C9.455 6.29006 9.7875 6.25881 10.6137 6.25006C10.9662 6.98756 11.7187 7.49756 12.5887 7.49756H17.5887C18.4612 7.49756 19.2137 6.98756 19.5662 6.25006C20.3925 6.25881 20.725 6.29006 21 6.39756C21.3825 6.54756 21.715 6.80131 21.96 7.13131C22.18 7.42756 22.3087 7.84131 22.6725 9.17506L23.115 10.7963C21.8175 10.6226 20.1425 10.6226 18.0612 10.6226H12.1175C10.0375 10.6226 8.3625 10.6226 7.065 10.7963L7.5075 9.17506C7.87 7.84131 8 7.42756 8.22 7.13131C8.46476 6.80144 8.79745 6.54716 9.18 6.39756ZM12.59 4.99756C12.5071 4.99756 12.4276 5.03048 12.369 5.08909C12.3104 5.14769 12.2775 5.22718 12.2775 5.31006C12.2775 5.39294 12.3104 5.47242 12.369 5.53103C12.4276 5.58964 12.5071 5.62256 12.59 5.62256H17.59C17.6729 5.62256 17.7524 5.58964 17.811 5.53103C17.8696 5.47242 17.9025 5.39294 17.9025 5.31006C17.9025 5.22718 17.8696 5.14769 17.811 5.08909C17.7524 5.03048 17.6729 4.99756 17.59 4.99756H12.59ZM5.17625 13.5788C5.525 13.1326 6.07625 12.8326 7.21375 12.6676C8.3775 12.5001 9.955 12.4976 12.1962 12.4976H17.9837C20.225 12.4976 21.8012 12.5001 22.965 12.6676C24.1037 12.8326 24.655 13.1326 25.0037 13.5801C25.3525 14.0263 25.51 14.6326 25.3925 15.7776C25.2738 16.9476 24.8937 18.4776 24.35 20.6526C24.0037 22.0376 23.7625 22.9976 23.49 23.7151C23.225 24.4076 22.9662 24.7738 22.6425 25.0276C22.3187 25.2801 21.9 25.4413 21.1637 25.5301C20.4012 25.6213 19.4137 25.6226 17.9837 25.6226H12.1962C10.7662 25.6226 9.7775 25.6213 9.01625 25.5301C8.27875 25.4426 7.86125 25.2801 7.5375 25.0276C7.2125 24.7738 6.95375 24.4076 6.69 23.7151C6.4175 22.9976 6.17625 22.0376 5.82875 20.6526C5.28625 18.4776 4.905 16.9476 4.78625 15.7776C4.67 14.6326 4.8275 14.0251 5.17625 13.5788Z" fill="#2C5291"/>
</svg>
