<svg width="16" height="17" viewBox="0 0 16 17" fill="none" xmlns="http://www.w3.org/2000/svg">
<g clip-path="url(#clip0_132_2480)">
<path d="M14.8557 4.55284C14.4569 5.13617 13.9748 5.6332 13.4093 6.04391C13.4153 6.12724 13.4182 6.25224 13.4182 6.41891C13.4182 7.19272 13.3051 7.96504 13.0789 8.73587C12.8528 9.50671 12.509 10.2463 12.0477 10.9546C11.5864 11.663 11.0373 12.2894 10.4004 12.8341C9.76347 13.3787 8.99561 13.8133 8.0968 14.1377C7.19799 14.4621 6.23668 14.6243 5.21287 14.6243C3.59978 14.6243 2.12359 14.1927 0.784302 13.3296C0.992635 13.3534 1.22478 13.3653 1.48073 13.3653C2.82002 13.3653 4.01347 12.9546 5.06109 12.1332C4.43609 12.1213 3.87656 11.9293 3.38252 11.5573C2.88847 11.1853 2.54918 10.7106 2.36466 10.1332C2.56109 10.163 2.74264 10.1778 2.9093 10.1778C3.16525 10.1778 3.41823 10.1451 3.66823 10.0796C3.00156 9.94272 2.44948 9.61087 2.01198 9.08409C1.57448 8.5573 1.35573 7.9457 1.35573 7.24927V7.21355C1.76049 7.43974 2.19502 7.56177 2.6593 7.57962C2.26644 7.31772 1.95394 6.97546 1.7218 6.55284C1.48966 6.13022 1.37359 5.67189 1.37359 5.17784C1.37359 4.65403 1.50454 4.16891 1.76644 3.72248C2.48668 4.60939 3.36317 5.31921 4.39591 5.85195C5.42865 6.38468 6.5343 6.68081 7.71287 6.74034C7.66525 6.51415 7.64145 6.29391 7.64145 6.07962C7.64145 5.28201 7.9227 4.60195 8.4852 4.03945C9.0477 3.47695 9.72775 3.1957 10.5254 3.1957C11.3587 3.1957 12.0611 3.49927 12.6325 4.10641C13.2813 3.98141 13.8914 3.74927 14.4629 3.40998C14.2426 4.09451 13.82 4.62427 13.195 4.99927C13.7486 4.93974 14.3022 4.79093 14.8557 4.55284Z" fill="#6C6C6C"/>
</g>
<defs>
<clipPath id="clip0_132_2480">
<rect width="15.36" height="16" fill="white" transform="matrix(1 0 0 -1 0.140015 16.91)"/>
</clipPath>
</defs>
</svg>
