<svg width="15" height="17" viewBox="0 0 15 17" fill="none" xmlns="http://www.w3.org/2000/svg">
<path d="M4.12279 11.6957C4.12279 11.6957 4.20612 11.779 4.37279 11.9457C4.53945 12.1124 4.62279 12.4338 4.62279 12.91C4.62279 13.3862 4.45612 13.7909 4.12279 14.1243C3.78945 14.4576 3.38469 14.6243 2.9085 14.6243C2.43231 14.6243 2.02755 14.4576 1.69421 14.1243C1.36088 13.7909 1.19421 13.3862 1.19421 12.91C1.19421 12.4338 1.36088 12.029 1.69421 11.6957C2.02755 11.3624 2.43231 11.1957 2.9085 11.1957C3.38469 11.1957 3.78945 11.3624 4.12279 11.6957ZM9.19421 14.0082C9.20612 14.1749 9.15552 14.3177 9.04243 14.4368C8.93529 14.5618 8.7954 14.6243 8.62279 14.6243H7.41743C7.26862 14.6243 7.14064 14.5752 7.0335 14.4769C6.92636 14.3787 6.86683 14.2552 6.85493 14.1064C6.72398 12.7433 6.17487 11.5781 5.20761 10.6109C4.24035 9.64361 3.07517 9.09451 1.71207 8.96355C1.56326 8.95165 1.43975 8.89212 1.34154 8.78498C1.24332 8.67784 1.19421 8.54986 1.19421 8.40105V7.1957C1.19421 7.02308 1.25671 6.8832 1.38171 6.77605C1.4829 6.67486 1.61088 6.62427 1.76564 6.62427H1.81029C2.76267 6.70165 3.67338 6.94123 4.54243 7.34302C5.41148 7.7448 6.18231 8.28498 6.85493 8.96355C7.5335 9.63617 8.07368 10.407 8.47546 11.2761C8.87725 12.1451 9.11683 13.0558 9.19421 14.0082ZM13.7656 14.0261C13.7775 14.1868 13.724 14.3266 13.6049 14.4457C13.4978 14.5647 13.3609 14.6243 13.1942 14.6243H11.9174C11.7627 14.6243 11.6302 14.5722 11.5201 14.468C11.41 14.3639 11.352 14.2374 11.346 14.0886C11.2746 12.8088 10.974 11.593 10.4442 10.4412C9.91445 9.28945 9.22546 8.28945 8.37725 7.44123C7.52904 6.59302 6.52904 5.90403 5.37725 5.37427C4.22546 4.84451 3.00969 4.54093 1.72993 4.46355C1.58112 4.4576 1.45463 4.39956 1.35046 4.28945C1.2463 4.17933 1.19421 4.04986 1.19421 3.90105V2.62427C1.19421 2.4576 1.25374 2.3207 1.37279 2.21355C1.47993 2.10641 1.61088 2.05284 1.76564 2.05284H1.79243C3.35195 2.13022 4.84451 2.48736 6.27011 3.12427C7.6957 3.76117 8.96207 4.63617 10.0692 5.74927C11.1823 6.85641 12.0573 8.12278 12.6942 9.54837C13.3311 10.974 13.6883 12.4665 13.7656 14.0261Z" fill="#6C6C6C"/>
</svg>
