<svg width="15" height="17" viewBox="0 0 15 17" fill="none" xmlns="http://www.w3.org/2000/svg">
<g clip-path="url(#clip0_132_2486)">
<path d="M9.12242 12.0172V13.9011C9.12242 14.2999 9.00635 14.4993 8.77421 14.4993C8.6373 14.4993 8.50337 14.4338 8.37242 14.3029V11.6154C8.50337 11.4844 8.6373 11.419 8.77421 11.419C9.00635 11.419 9.12242 11.6184 9.12242 12.0172ZM12.1403 12.0261V12.4368H11.3367V12.0261C11.3367 11.6213 11.4706 11.419 11.7385 11.419C12.0063 11.419 12.1403 11.6213 12.1403 12.0261ZM3.51528 10.0797H4.47063V9.24039H1.68492V10.0797H2.62242V15.16H3.51528V10.0797ZM6.08671 15.16H6.88135V10.7493H6.08671V14.1243C5.90813 14.3743 5.73849 14.4993 5.57778 14.4993C5.47063 14.4993 5.40813 14.4368 5.39028 14.3118C5.38432 14.294 5.38135 14.1898 5.38135 13.9993V10.7493H4.5867V14.2404C4.5867 14.5321 4.61051 14.7493 4.65813 14.8922C4.72956 15.1124 4.90218 15.2225 5.17599 15.2225C5.46171 15.2225 5.76528 15.041 6.08671 14.6779V15.16ZM9.91706 13.8386V12.0797C9.91706 11.6452 9.89028 11.3505 9.83671 11.1957C9.73551 10.8624 9.52421 10.6957 9.20278 10.6957C8.90516 10.6957 8.62837 10.8565 8.37242 11.1779V9.24039H7.57778V15.16H8.37242V14.7315C8.64028 15.0588 8.91706 15.2225 9.20278 15.2225C9.52421 15.2225 9.73551 15.0588 9.83671 14.7315C9.89028 14.5707 9.91706 14.2731 9.91706 13.8386ZM12.9349 13.7493V13.6332H12.1224C12.1224 13.9368 12.1165 14.1184 12.1046 14.1779C12.0629 14.3922 11.9438 14.4993 11.7474 14.4993C11.4736 14.4993 11.3367 14.294 11.3367 13.8832V13.1065H12.9349V12.1868C12.9349 11.7166 12.8546 11.3713 12.6938 11.1511C12.4617 10.8475 12.1462 10.6957 11.7474 10.6957C11.3427 10.6957 11.0242 10.8475 10.7921 11.1511C10.6254 11.3713 10.5421 11.7166 10.5421 12.1868V13.7315C10.5421 14.2017 10.6284 14.5469 10.801 14.7672C11.0331 15.0707 11.3546 15.2225 11.7653 15.2225C12.1938 15.2225 12.5153 15.0648 12.7296 14.7493C12.8367 14.5886 12.8992 14.4279 12.9171 14.2672C12.929 14.2136 12.9349 14.041 12.9349 13.7493ZM7.50635 5.59753V3.72253C7.50635 3.31182 7.37837 3.10646 7.12242 3.10646C6.86647 3.10646 6.73849 3.31182 6.73849 3.72253V5.59753C6.73849 6.0142 6.86647 6.22253 7.12242 6.22253C7.37837 6.22253 7.50635 6.0142 7.50635 5.59753ZM13.926 12.3029C13.926 13.6957 13.8486 14.7374 13.6938 15.4279C13.6105 15.7791 13.4379 16.0737 13.176 16.3118C12.9141 16.5499 12.6105 16.6868 12.2653 16.7225C11.17 16.8475 9.51825 16.91 7.30992 16.91C5.10159 16.91 3.4498 16.8475 2.35456 16.7225C2.00932 16.6868 1.70426 16.5499 1.43938 16.3118C1.1745 16.0737 1.00337 15.7791 0.925991 15.4279C0.771229 14.7612 0.693848 13.7196 0.693848 12.3029C0.693848 10.91 0.771229 9.86837 0.925991 9.17789C1.00932 8.8267 1.18194 8.53206 1.44385 8.29396C1.70575 8.05587 2.0123 7.91599 2.36349 7.87432C3.45278 7.75527 5.10159 7.69575 7.30992 7.69575C9.51825 7.69575 11.17 7.75527 12.2653 7.87432C12.6105 7.91599 12.9156 8.05587 13.1805 8.29396C13.4453 8.53206 13.6165 8.8267 13.6938 9.17789C13.8486 9.84456 13.926 10.8862 13.926 12.3029ZM5.01528 0.910034H5.92599L4.84563 4.47253V6.89218H3.95278V4.47253C3.86944 4.03206 3.6879 3.4011 3.40813 2.57968C3.1879 1.96658 2.99444 1.41003 2.82778 0.910034H3.7742L4.40813 3.25825L5.01528 0.910034ZM8.31885 3.88325V5.44575C8.31885 5.92789 8.23551 6.27908 8.06885 6.49932C7.84861 6.80289 7.53313 6.95468 7.12242 6.95468C6.72361 6.95468 6.41111 6.80289 6.18492 6.49932C6.01825 6.27313 5.93492 5.92194 5.93492 5.44575V3.88325C5.93492 3.40706 6.01825 3.05884 6.18492 2.8386C6.41111 2.53503 6.72361 2.38325 7.12242 2.38325C7.53313 2.38325 7.84861 2.53503 8.06885 2.8386C8.23551 3.05884 8.31885 3.40706 8.31885 3.88325ZM11.3099 2.43682V6.89218H10.4974V6.4011C10.1819 6.77015 9.8754 6.95468 9.57778 6.95468C9.30397 6.95468 9.12837 6.84456 9.05099 6.62432C9.00337 6.48146 8.97956 6.25825 8.97956 5.95468V2.43682H9.79206V5.7136C9.79206 5.91003 9.79504 6.0142 9.80099 6.0261C9.81885 6.15706 9.88135 6.22253 9.98849 6.22253C10.1492 6.22253 10.3188 6.09456 10.4974 5.8386V2.43682H11.3099Z" fill="#6C6C6C"/>
</g>
<defs>
<clipPath id="clip0_132_2486">
<rect width="14.22" height="16" fill="white" transform="matrix(1 0 0 -1 0.199951 16.91)"/>
</clipPath>
</defs>
</svg>
