<svg width="24" height="25" viewBox="0 0 24 25" fill="none" xmlns="http://www.w3.org/2000/svg">
<path d="M10.4951 15.221V22.719H7.5001V15.221H10.4951ZM17.2551 13.721H13.7541C13.5552 13.721 13.3644 13.8 13.2238 13.9406C13.0831 14.0813 13.0041 14.2721 13.0041 14.471V17.973C13.0041 18.387 13.3391 18.723 13.7541 18.723H17.2551C17.454 18.723 17.6448 18.644 17.7854 18.5033C17.9261 18.3626 18.0051 18.1719 18.0051 17.973V14.471C18.0051 14.2721 17.9261 14.0813 17.7854 13.9406C17.6448 13.8 17.454 13.721 17.2551 13.721ZM16.5051 15.221V17.223H14.5031V15.221H16.5051ZM8.1651 7.72197H3.5011V8.88697C3.5011 10.067 4.3791 11.044 5.5181 11.198L5.6741 11.214L5.8341 11.219C6.42527 11.2196 6.99456 10.9954 7.42664 10.5919C7.85871 10.1884 8.12126 9.6358 8.1611 9.04597L8.1671 8.88597L8.1651 7.72197ZM14.3301 7.72197H9.6661V8.88697C9.6661 10.067 10.5441 11.044 11.6831 11.198L11.8391 11.214L11.9991 11.219C12.5903 11.2196 13.1596 10.9954 13.5916 10.5919C14.0237 10.1884 14.2863 9.6358 14.3261 9.04597L14.3321 8.88597L14.3301 7.72197ZM20.4971 7.72197H15.8321L15.8331 8.88697C15.8331 10.067 16.7111 11.044 17.8491 11.198L18.0061 11.214L18.1661 11.219C18.7571 11.2188 19.326 10.9944 19.7579 10.5911C20.1898 10.1878 20.4526 9.63555 20.4931 9.04597L20.4981 8.88597L20.4971 7.72197ZM9.0611 4.21997H6.3261L4.4701 6.22197H8.4471L9.0611 4.21997ZM13.3691 4.21997H10.6311L10.0151 6.22197H13.9851L13.3691 4.21997ZM17.6731 4.21997H14.9401L15.5551 6.22197H19.5311L17.6731 4.21997ZM2.2021 6.46197L5.4501 2.95997C5.5675 2.83326 5.72503 2.75096 5.8961 2.72697L6.0001 2.71997H18.0001C18.1732 2.7198 18.341 2.77951 18.4751 2.88897L18.5501 2.95897L21.8231 6.48897L21.8531 6.52697C21.9551 6.66297 22.0011 6.81697 22.0011 6.96697L21.9991 8.88697C21.9991 9.88097 21.6211 10.787 20.9991 11.467V21.97C20.9991 22.1512 20.9335 22.3263 20.8143 22.4629C20.6952 22.5995 20.5307 22.6883 20.3511 22.713L20.2491 22.72L11.9961 22.719V14.471C11.9961 14.2721 11.9171 14.0813 11.7764 13.9406C11.6358 13.8 11.445 13.721 11.2461 13.721H6.7501C6.55119 13.721 6.36042 13.8 6.21977 13.9406C6.07911 14.0813 6.0001 14.2721 6.0001 14.471V22.719L3.7521 22.72C3.57069 22.7202 3.39534 22.6547 3.25854 22.5355C3.12175 22.4164 3.03277 22.2517 3.0081 22.072L3.0021 21.97L3.0001 11.468C2.40164 10.813 2.04985 9.97007 2.0051 9.08397L2.0001 8.88697V7.00997C1.99153 6.86751 2.0249 6.72566 2.0961 6.60197L2.1461 6.52597L2.2021 6.46197Z" fill="black"/>
</svg>
