<svg width="26" height="22" viewBox="0 0 26 22" fill="none" xmlns="http://www.w3.org/2000/svg">
<g clip-path="url(#clip0_151_3925)">
<path d="M5.57143 13.72C5.57143 13.2073 5.39007 12.7696 5.02734 12.4069C4.66462 12.0442 4.22693 11.8628 3.71429 11.8628C3.20164 11.8628 2.76395 12.0442 2.40123 12.4069C2.0385 12.7696 1.85714 13.2073 1.85714 13.72C1.85714 14.2326 2.0385 14.6703 2.40123 15.033C2.76395 15.3958 3.20164 15.5771 3.71429 15.5771C4.22693 15.5771 4.66462 15.3958 5.02734 15.033C5.39007 14.6703 5.57143 14.2326 5.57143 13.72ZM8.35714 7.21997C8.35714 6.70732 8.17578 6.26964 7.81306 5.90691C7.45033 5.54419 7.01265 5.36283 6.5 5.36283C5.98735 5.36283 5.54966 5.54419 5.18694 5.90691C4.82422 6.26964 4.64286 6.70732 4.64286 7.21997C4.64286 7.73262 4.82422 8.17031 5.18694 8.53303C5.54966 8.89575 5.98735 9.07711 6.5 9.07711C7.01265 9.07711 7.45033 8.89575 7.81306 8.53303C8.17578 8.17031 8.35714 7.73262 8.35714 7.21997ZM14.567 14.1988L16.0324 8.65635C16.0904 8.40487 16.0541 8.17031 15.9235 7.95267C15.793 7.73504 15.6068 7.59237 15.365 7.52466C15.1231 7.45695 14.891 7.48839 14.6685 7.61897C14.4461 7.74955 14.301 7.94058 14.2333 8.19207L12.7679 13.7345C12.1875 13.7828 11.67 13.9932 11.2154 14.3656C10.7608 14.738 10.4561 15.2144 10.3013 15.7947C10.1079 16.5395 10.2046 17.2456 10.5915 17.9131C10.9784 18.5805 11.5443 19.0109 12.2891 19.2043C13.0339 19.3978 13.74 19.3011 14.4074 18.9142C15.0748 18.5273 15.5052 17.9614 15.6987 17.2166C15.8534 16.6363 15.8244 16.0704 15.6116 15.5191C15.3988 14.9677 15.0506 14.5276 14.567 14.1988ZM24.1429 13.72C24.1429 13.2073 23.9615 12.7696 23.5988 12.4069C23.236 12.0442 22.7984 11.8628 22.2857 11.8628C21.7731 11.8628 21.3354 12.0442 20.9727 12.4069C20.6099 12.7696 20.4286 13.2073 20.4286 13.72C20.4286 14.2326 20.6099 14.6703 20.9727 15.033C21.3354 15.3958 21.7731 15.5771 22.2857 15.5771C22.7984 15.5771 23.236 15.3958 23.5988 15.033C23.9615 14.6703 24.1429 14.2326 24.1429 13.72ZM14.8571 4.43426C14.8571 3.92161 14.6758 3.48392 14.3131 3.1212C13.9503 2.75848 13.5126 2.57711 13 2.57711C12.4874 2.57711 12.0497 2.75848 11.6869 3.1212C11.3242 3.48392 11.1429 3.92161 11.1429 4.43426C11.1429 4.94691 11.3242 5.38459 11.6869 5.74731C12.0497 6.11004 12.4874 6.2914 13 6.2914C13.5126 6.2914 13.9503 6.11004 14.3131 5.74731C14.6758 5.38459 14.8571 4.94691 14.8571 4.43426ZM21.3571 7.21997C21.3571 6.70732 21.1758 6.26964 20.8131 5.90691C20.4503 5.54419 20.0126 5.36283 19.5 5.36283C18.9874 5.36283 18.5497 5.54419 18.1869 5.90691C17.8242 6.26964 17.6429 6.70732 17.6429 7.21997C17.6429 7.73262 17.8242 8.17031 18.1869 8.53303C18.5497 8.89575 18.9874 9.07711 19.5 9.07711C20.0126 9.07711 20.4503 8.89575 20.8131 8.53303C21.1758 8.17031 21.3571 7.73262 21.3571 7.21997ZM26 13.72C26 16.2445 25.3181 18.5805 23.9542 20.7278C23.7705 21.0083 23.5093 21.1485 23.1708 21.1485H2.82924C2.4907 21.1485 2.22954 21.0083 2.04576 20.7278C0.68192 18.5901 0 16.2542 0 13.72C0 11.9596 0.343378 10.2765 1.03013 8.67086C1.71689 7.06521 2.64062 5.68202 3.80134 4.52131C4.96205 3.3606 6.34524 2.43686 7.95089 1.7501C9.55655 1.06335 11.2396 0.719971 13 0.719971C14.7604 0.719971 16.4435 1.06335 18.0491 1.7501C19.6548 2.43686 21.0379 3.3606 22.1987 4.52131C23.3594 5.68202 24.2831 7.06521 24.9699 8.67086C25.6566 10.2765 26 11.9596 26 13.72Z" fill="#FDBA2D"/>
</g>
<defs>
<clipPath id="clip0_151_3925">
<rect width="26" height="20.4286" fill="white" transform="translate(0 0.719971)"/>
</clipPath>
</defs>
</svg>
