<svg width="24" height="25" viewBox="0 0 24 25" fill="none" xmlns="http://www.w3.org/2000/svg">
<path fill-rule="evenodd" clip-rule="evenodd" d="M12 2.21997C9.81196 2.21997 7.71354 3.08916 6.16637 4.63634C4.61919 6.18352 3.75 8.28193 3.75 10.47V11.97C3.75 12.762 4.0725 13.5225 4.4145 14.109C4.761 14.7075 5.178 15.2085 5.469 15.501L7.5945 17.625L8.46 20.22H15.54L16.4055 17.625L18.531 15.501C18.822 15.2085 19.239 14.706 19.5855 14.109C19.9275 13.5225 20.25 12.762 20.25 11.97V10.47C20.25 8.28193 19.3808 6.18352 17.8336 4.63634C16.2865 3.08916 14.188 2.21997 12 2.21997ZM14.031 8.75097L12.969 7.68897L10.1895 10.47L11.6895 11.97L9.969 13.689L11.031 14.751L13.8105 11.97L12.3105 10.47L14.031 8.75097Z" fill="black"/>
<path d="M15 23.22V21.72H9V23.22H15Z" fill="black"/>
</svg>
