<svg width="24" height="25" viewBox="0 0 24 25" fill="none" xmlns="http://www.w3.org/2000/svg">
<path d="M19.9751 2.97003C20.2091 2.96666 20.4414 3.01027 20.6583 3.09828C20.8752 3.18629 21.0722 3.31691 21.2377 3.48241C21.4032 3.64791 21.5338 3.84493 21.6218 4.0618C21.7098 4.27868 21.7534 4.511 21.7501 4.74503L21.6551 12.233C21.6464 12.9516 21.3567 13.6383 20.8481 14.146L13.5501 21.445C13.1271 21.868 12.5161 22.243 11.8631 22.397C11.1991 22.553 10.3871 22.493 9.76306 21.868L2.85206 14.958C2.22706 14.333 2.16706 13.521 2.32306 12.857C2.48313 12.2194 2.81198 11.6367 3.27506 11.17L10.5741 3.87203C11.0824 3.36429 11.7687 3.07479 12.4871 3.06503L19.9751 2.97003ZM17.6851 8.56203C17.8175 8.41986 17.8897 8.23181 17.8862 8.03751C17.8828 7.84321 17.8041 7.65782 17.6667 7.52041C17.5293 7.383 17.3439 7.30428 17.1496 7.30085C16.9553 7.29743 16.7672 7.36955 16.6251 7.50203L15.9171 8.20903C15.7805 8.35055 15.705 8.54003 15.7068 8.73668C15.7086 8.93333 15.7876 9.1214 15.9267 9.26039C16.0658 9.39938 16.254 9.47817 16.4506 9.47979C16.6473 9.4814 16.8367 9.40572 16.9781 9.26903L17.6851 8.56203Z" fill="black"/>
</svg>
