<svg width="24" height="25" viewBox="0 0 24 25" fill="none" xmlns="http://www.w3.org/2000/svg">
<path d="M20 6.71997H4V4.71997H20V6.71997ZM13 16.22C13 17.36 13.43 18.58 14 19.72V20.72H4V14.72H3V12.72L4 7.71997H20L20.7 11.22C20 10.9 19.28 10.72 18.5 10.72C15.5 10.72 13 13.22 13 16.22ZM12 14.72H6V18.72H12V14.72ZM22 16.22C22 18.82 18.5 22.72 18.5 22.72C18.5 22.72 15 18.82 15 16.22C15 14.32 16.6 12.72 18.5 12.72C20.4 12.72 22 14.32 22 16.22ZM19.7 16.32C19.7 15.72 19.1 15.12 18.5 15.12C17.9 15.12 17.3 15.62 17.3 16.32C17.3 16.92 17.8 17.52 18.5 17.52C19.2 17.52 19.8 16.92 19.7 16.32Z" fill="black"/>
</svg>
